inDegrees=no
num_controls=7
num_derivatives=13
num_iterations=104
num_multipliers=7
num_parameters=0
num_slacks=7
num_states=26
objective=0.445702
objective_accelerations=0.056630
objective_balance=0.003578
objective_effort=0.022898
objective_height=0.357010
objective_ligament=0.005587
solver_duration=1559.121531
status=Solve_Succeeded
success=true
DataType=double
version=3
OpenSimVersion=4.5
endheader
time	/jointset/ground_pelvis/pelvis_tilt/value	/jointset/ground_pelvis/pelvis_tx/value	/jointset/ground_pelvis/pelvis_ty/value	/jointset/hip_l/hip_flexion_l/value	/jointset/hip_l/hip_adduction_l/value	/jointset/hip_l/hip_rotation_l/value	/jointset/back/lumbar_extension/value	/jointset/patellofemoral_l/patellar_flexion_l/value	/jointset/knee_l/knee_flexion_l/value	/jointset/knee_l/knee_adduction_l/value	/jointset/knee_l/knee_rotation_l/value	/jointset/ankle_l/ankle_angle_l/value	/jointset/subtalar_l/subtalar_angle_l/value	/jointset/ground_pelvis/pelvis_tilt/speed	/jointset/ground_pelvis/pelvis_tx/speed	/jointset/ground_pelvis/pelvis_ty/speed	/jointset/hip_l/hip_flexion_l/speed	/jointset/hip_l/hip_adduction_l/speed	/jointset/hip_l/hip_rotation_l/speed	/jointset/back/lumbar_extension/speed	/jointset/patellofemoral_l/patellar_flexion_l/speed	/jointset/knee_l/knee_flexion_l/speed	/jointset/knee_l/knee_adduction_l/speed	/jointset/knee_l/knee_rotation_l/speed	/jointset/ankle_l/ankle_angle_l/speed	/jointset/subtalar_l/subtalar_angle_l/speed	/forceset/tau_hip_flexion_l	/forceset/tau_hip_adduction_l	/forceset/tau_hip_rotation_l	/forceset/tau_knee_flexion_l	/forceset/tau_ankle_angle_l	/forceset/tau_subtalar_angle_l	/forceset/tau_lumbar_extension	lambda_cid13_p0	lambda_cid13_p1	lambda_cid13_p2	lambda_cid13_p3	lambda_cid13_p4	lambda_cid13_p5	lambda_cid14_p0	/jointset/ground_pelvis/pelvis_tilt/accel	/jointset/ground_pelvis/pelvis_tx/accel	/jointset/ground_pelvis/pelvis_ty/accel	/jointset/hip_l/hip_flexion_l/accel	/jointset/hip_l/hip_adduction_l/accel	/jointset/hip_l/hip_rotation_l/accel	/jointset/back/lumbar_extension/accel	/jointset/patellofemoral_l/patellar_flexion_l/accel	/jointset/knee_l/knee_flexion_l/accel	/jointset/knee_l/knee_adduction_l/accel	/jointset/knee_l/knee_rotation_l/accel	/jointset/ankle_l/ankle_angle_l/accel	/jointset/subtalar_l/subtalar_angle_l/accel	gamma_cid13_p0	gamma_cid13_p1	gamma_cid13_p2	gamma_cid13_p3	gamma_cid13_p4	gamma_cid13_p5	gamma_cid14_p0
1	-0.5544912127403144	-0.0846538108829689	0.5773334611844161	1.832498419916937	-0.4688119809074133	0.01380533706163847	-0.2617971626116893	1.36788474440527	1.367884744404602	-0.09533084751211951	-0.1745307229024535	0.2086738455645616	-0.01852630644039167	-0.01764552726679592	0.01003247923311664	0.002008114181354161	0.0008328135467319563	-0.002057778554845928	0.002982717612192542	-3.839335911311577e-05	0.002471382286877425	0.002471382286877109	-0.003943682956808844	-4.787183306708128e-05	0.01939402556814509	0.008505976265330471	-0.3347184566048931	0.01285886568350471	-0.0004887440940443202	-0.300512934493487	0.04520035963306866	0.0329527974827124	0.2854332873399728	-25.39787517510032	-10.82476504778966	2.486795908075914	5.530889861666184	-642.1583762669112	-47.82335143441312	-1.817499183280849	1.548162784630461	0.2861734002250599	1.954254914419584	-6.842454313349031	-0.08491073874193815	-2.359866006747266	-0.02178329897745174	-5.234595906743134	-5.234595906742929	-0.5558783754748121	-0.02439514406338626	-0.6118031835040523	-0.4229353886389228	4.46953894365962e-09	1.665230118435254e-08	-1.344775963229338e-08	2.722988663487051e-09	-1.480599143305664e-09	2.026717925785458e-08	2.580200972212136e-09
1.01	-0.5545912201231661	-0.08453923732167945	0.5774511072479352	1.832165960352075	-0.4688357820539876	0.01371581467771327	-0.2617975758465161	1.367647851693176	1.367647851692852	-0.09539512467338486	-0.1745312399928767	0.2088373551836364	-0.01846098841358201	-0.002354359629047719	0.01288451106586342	0.02151732577749188	-0.06731775666330543	-0.002699510709195356	-0.02088437443794781	-4.283737135001238e-05	-0.04984820719717897	-0.04984820719718264	-0.008911906939626592	-5.53687467949874e-05	0.01330132793459628	0.004557289066874633	-0.3346576807105245	0.01297249186138181	-0.0005079513634498871	-0.3003287683626697	0.04500004945063626	0.03297550384514132	0.2853898768017667	-25.44978395656479	-10.82902521915462	2.491458824991706	5.483657082613784	-642.0263491414995	-47.83171940773054	-1.823092761229716	1.519831017842084	0.2850605880788143	1.948685915391489	-6.800314330587091	-0.05336484287124899	-2.399713850636795	0.01043748290419027	-5.230380824873095	-5.230380824873716	-0.4673214380310196	0.01110821661366261	-0.608988025094894	-0.3808913118328372	-4.135511644648934e-09	7.988450276546966e-09	3.080795422610898e-08	4.022454849102595e-09	-1.216745025773667e-08	7.178279427777582e-08	-9.963796868490165e-09
1.02	-0.5545382683767413	-0.08439607493940668	0.5777637317540518	1.831152203893962	-0.4688659125999233	0.01338770476398836	-0.2617979910344157	1.366887815015114	1.366887815015134	-0.09550908948014884	-0.174531825016087	0.2089397408320127	-0.01843516844403369	0.01294629858850425	0.01575024342978096	0.04100380270085287	-0.1354265651035828	-0.003323658427136625	-0.04473478834766285	-3.878397354663155e-05	-0.102157410906684	-0.1021574109066917	-0.01388121205627509	-6.145839487602662e-05	0.007169231428463377	0.0006063648130622097	-0.3345969048161546	0.01308611803925885	-0.0005271586328422129	-0.3001446022318525	0.04479973926820361	0.03299821020756983	0.285346466263562	-25.50742437547696	-10.83235519065341	2.496057258206996	5.455667983348161	-641.9757451725221	-47.81782439569603	-1.84053421105004	1.550060900591209	0.2889135064592114	1.94970797986424	-6.834101959397019	-0.08139385146028051	-2.356530378662177	-0.02008381696939385	-5.232518751832878	-5.232518751832794	-0.5560946022409511	-0.02411369093396183	-0.6196829580208647	-0.423382799710204	-1.24719754484273e-08	-3.051310324332957e-11	7.521815847277983e-08	5.629380249717217e-09	-2.27227884413773e-08	1.221712782591692e-07	-2.221915313859057e-08
1.03	-0.5543322284948552	-0.08422415526724517	0.5782710293333372	1.829457719425257	-0.4689021289395942	0.01282126072650036	-0.2617983307433785	1.365604826153568	1.365604826154092	-0.09567273107110642	-0.1745324464942494	0.2089805319973419	-0.01844882445229971	0.02826602799698619	0.01863902710775887	0.06044416546309072	-0.2034477045993635	-0.003908940853768483	-0.06854240291823345	-2.783564923366983e-05	-0.1544301251416403	-0.154430125141665	-0.01884385966767022	-5.92950854425979e-05	0.0009749876235277049	-0.003332187997685294	-0.3342245475431375	0.01323591949299783	-0.0005813854089829322	-0.2998314010371914	0.04466698655644348	0.03310070259435657	0.2850892299870227	-25.52284959545714	-10.8864208142505	2.518673839213523	5.356597124017056	-641.620003301629	-47.88598008846619	-1.870029019419859	1.523577944438932	0.2896626718788317	1.939461551124235	-6.782730545473739	-0.04550591841179427	-2.391155964110253	0.01188248261292954	-5.223105351696992	-5.223105351699604	-0.4658749466975228	0.01294279236310354	-0.621396707765999	-0.3782975693590322	-2.080569857073086e-08	-8.042895998053874e-09	1.19629939151984e-07	7.239442989260402e-09	-3.32767846563364e-08	1.725482609034347e-07	-3.447156408654196e-08
